<svg xmlns="http://www.w3.org/2000/svg" xmlns:xlink="http://www.w3.org/1999/xlink" width="129.897" height="27.427" viewBox="0 0 129.897 27.427"><defs><style>.a{fill:none;}.b{clip-path:url(#a);}.c{fill:#cb0023;}.c,.d{fill-rule:evenodd;}.d{fill:#fff;}</style><clipPath id="a"><rect class="a" width="129.897" height="27.427"/></clipPath></defs><g transform="translate(-186.487 -7.424)"><g transform="translate(186.487 7.424)"><g class="b"><g transform="translate(80.456)"><path class="c" d="M257.487,491.148,252.705,504.9l.336-13.755h-8.683l1.5,27.357h8.359l9.1-20.491h1.6L261.3,518.505h8.327l4.807-27.357Z" transform="translate(-244.358 -491.148)"/><path class="c" d="M278.991,491.148h-11l-4.807,27.357h8.323l1.268-6.807c7.2.073,12.142-3.437,12.671-10.705C285.821,495.821,284.461,492.159,278.991,491.148Zm-1.982,10.159c-.128,1.566-1.1,3.3-2.8,3.478l1.225-6.8A3.317,3.317,0,0,1,277.008,501.307Z" transform="translate(-236.063 -491.148)"/></g><path class="d" d="M208.079,504.851c2.154-.823,3.586-3.2,4.038-5.771.74-4.215-1.347-7.007-5.428-7.932H189.714l-1.2,6.836h4.908l-3.649,20.522h12.77a9.62,9.62,0,0,0,7.977-7.872C210.989,507.949,210.636,505.946,208.079,504.851Zm-5.976,4.728c-.357,2.031-2.393,2.095-3.01,2.095h-.014l.732-4.076h.154C201.307,507.6,202.369,508.073,202.1,509.579Zm1.583-9.9c-.288,1.59-1.861,1.906-2.831,1.938l.658-3.633h.305C203.021,497.984,203.935,498.312,203.687,499.679Z" transform="translate(-188.511 -491.148)"/><path class="d" d="M224.285,493.734a7.847,7.847,0,0,0-6.228-2.583h0c-7.3,0-11.815,6.844-13.048,13.628-.849,4.675-.117,8.762,2.01,11.212a7.846,7.846,0,0,0,6.228,2.582h0c7.3,0,11.815-6.844,13.048-13.628C227.145,500.27,226.411,496.183,224.285,493.734Zm-6.278,10.995c-.745,4.1-2.056,6.977-3.6,6.977-2.217,0-1.305-5.748-1.112-6.811.745-4.1,2.145-6.888,3.688-6.888C219.2,498.007,218.2,503.666,218.007,504.729Z" transform="translate(-181.394 -491.147)"/><path class="d" d="M229.549,498.3l-8.312-.085-.377,2.147,8.406-.451Z" transform="translate(-174.256 -488.034)"/><path class="d" d="M253.366,505.679l-17.561-1.514-1.44,3.719H228.6l.954-5.693-3.749-.183,3.811-.17.332-1.891-8.285-.237-2.64,15.023h20.987l1.135-3.226h4.044l.01,3.225h8.5Z" transform="translate(-175.064 -487.375)"/><path class="d" d="M248.132,502.485l-16.791-.819-.631,1.514,17.429-.517Z" transform="translate(-169.917 -486.513)"/><path class="d" d="M247.261,498.482l-14.583-.149-.459,1.1,15.048-.807Z" transform="translate(-169.251 -487.982)"/><path class="d" d="M247.706,500.474l-15.7-.449-.563,1.351,16.272-.724Z" transform="translate(-169.594 -487.237)"/><path class="d" d="M231.223,491.148H222.9l-1.738,9.889,8.369-.242Z" transform="translate(-174.125 -491.148)"/><path class="d" d="M246.606,491.148h-9.874l-3.921,9.4,14.132-1.072Z" transform="translate(-168.99 -491.148)"/></g></g></g></svg>